<svg xmlns="http://www.w3.org/2000/svg" viewBox="0 0 320 400" role="img" aria-label="Archivist Quin thinking">
  <defs>
    <linearGradient id="bg" x1="0" y1="0" x2="0" y2="1">
      <stop offset="0%" stop-color="#243040"/>
      <stop offset="100%" stop-color="#152033"/>
    </linearGradient>
    <radialGradient id="lamp" cx="60%" cy="25%" r="50%">
      <stop offset="0%" stop-color="#e8dcc8" stop-opacity="0.22"/>
      <stop offset="100%" stop-color="#e8dcc8" stop-opacity="0"/>
    </radialGradient>
  </defs>
  <rect width="320" height="400" fill="url(#bg)"/>
  <rect width="320" height="400" fill="url(#lamp)"/>
  <path d="M65 400 V275 C65 235 105 205 160 205 C215 205 255 235 255 275 V400 Z" fill="#6b7a6e"/>
  <path d="M160 205 V400" stroke="#4a5a50" stroke-width="2"/>
  <path d="M130 220 C130 200 145 190 160 190 C175 190 190 200 190 220 V250 H130 Z" fill="#3d6b6a"/>
  <ellipse cx="160" cy="200" rx="26" ry="18" fill="#c4a484"/>
  <ellipse cx="160" cy="140" rx="50" ry="58" fill="#c4a484"/>
  <path d="M110 145 C110 85 140 68 160 68 C180 68 210 85 210 145 C210 120 185 100 160 100 C135 100 110 120 110 145 Z" fill="#2c2420"/>
  <path d="M200 100 Q220 130 215 160" stroke="#2c2420" stroke-width="8" fill="none" stroke-linecap="round"/>
  <circle cx="140" cy="142" r="16" fill="none" stroke="#c9a227" stroke-width="2" opacity="0.7"/>
  <circle cx="180" cy="142" r="16" fill="none" stroke="#c9a227" stroke-width="2" opacity="0.7"/>
  <path d="M156 142 H164" stroke="#c9a227" stroke-width="2"/>
  <ellipse cx="136" cy="142" rx="4" ry="4" fill="#1a2332"/>
  <ellipse cx="176" cy="142" rx="4" ry="4" fill="#1a2332"/>
  <path d="M148 170 Q158 172 168 168" stroke="#8a5a4a" stroke-width="2" fill="none"/>
  <ellipse cx="235" cy="235" rx="16" ry="20" fill="#c4a484" transform="rotate(12 235 235)"/>
  <path d="M240 250 Q248 240 248 255 Q248 270 240 268" fill="none" stroke="#a8b0b8" stroke-width="3"/>
  <text x="160" y="385" text-anchor="middle" fill="#a8c0b0" font-family="sans-serif" font-size="11" letter-spacing="2">QUIN</text>
</svg>
